HIERARCHY
ROOT Hips
{
  OFFSET 5.80788e-005 67.184 3.4734
  CHANNELS 6 Xposition Yposition Zposition Zrotation Xrotation Yrotation
  JOINT Chest
  {
    OFFSET 0 8.7983 -4.7612
    CHANNELS 3 Zrotation Xrotation Yrotation
    JOINT Chest2
    {
      OFFSET 0 8.0291 0.4195
      CHANNELS 3 Zrotation Xrotation Yrotation
      JOINT Chest3
      {
        OFFSET 0 9.9351 -2.2114
        CHANNELS 3 Zrotation Xrotation Yrotation
        JOINT Neck
        {
          OFFSET 0 22.3885 -0.4656
          CHANNELS 3 Zrotation Xrotation Yrotation
          JOINT Head
          {
            OFFSET -0.0001 12.643 3.4389
            CHANNELS 3 Zrotation Xrotation Yrotation
            End Site
            {
              OFFSET 0.0001 17.6655 0.5274
            }
          }
        }
        JOINT LeftCollar
        {
          OFFSET 2.2603 21.606 7.4023
          CHANNELS 3 Zrotation Xrotation Yrotation
          JOINT LeftShoulder
          {
            OFFSET 13.5163 -1.1332 -5.0146
            CHANNELS 3 Zrotation Xrotation Yrotation
            JOINT LeftElbow
            {
              OFFSET -0.0995 -28.05 -0.2431
              CHANNELS 3 Zrotation Xrotation Yrotation
              JOINT LeftWrist
              {
                OFFSET 0.0679 -23.3996 -0.1402
                CHANNELS 3 Zrotation Xrotation Yrotation
                JOINT LeftFinger1
                {
                  OFFSET 0.7932 -9.069 2.5189
                  CHANNELS 3 Zrotation Xrotation Yrotation
                  JOINT LeftFinger11
                  {
                    OFFSET -0.8272 -3.3923 0.5977
                    CHANNELS 3 Zrotation Xrotation Yrotation
                    JOINT LeftFinger12
                    {
                      OFFSET -0.5649 -2.3158 0.4082
                      CHANNELS 3 Zrotation Xrotation Yrotation
                      End Site
                      {
                        OFFSET -0.4919 -1.6479 0.2673
                      }
                    }
                  }
                }
                JOINT LeftFinger2
                {
                  OFFSET 0.9159 -9.2044 0.2193
                  CHANNELS 3 Zrotation Xrotation Yrotation
                  JOINT LeftFinger21
                  {
                    OFFSET 0.0117 -4.1944 -0.0248
                    CHANNELS 3 Zrotation Xrotation Yrotation
                    JOINT LeftFinger22
                    {
                      OFFSET 0.0071 -2.3249 -0.0142
                      CHANNELS 3 Zrotation Xrotation Yrotation
                      End Site
                      {
                        OFFSET -0.1475 -2.0882 0.0028
                      }
                    }
                  }
                }
                JOINT LeftFinger3
                {
                  OFFSET 0.6113 -8.7231 -2.0637
                  CHANNELS 3 Zrotation Xrotation Yrotation
                  JOINT LeftFinger31
                  {
                    OFFSET -0.1927 -3.8059 -0.2383
                    CHANNELS 3 Zrotation Xrotation Yrotation
                    JOINT LeftFinger32
                    {
                      OFFSET -0.1091 -2.1688 -0.1362
                      CHANNELS 3 Zrotation Xrotation Yrotation
                      End Site
                      {
                        OFFSET -0.2358 -1.9176 -0.0906
                      }
                    }
                  }
                }
                JOINT LeftFinger4
                {
                  OFFSET -0.6151 -8.0947 -3.5641
                  CHANNELS 3 Zrotation Xrotation Yrotation
                  JOINT LeftFinger41
                  {
                    OFFSET -0.4882 -2.341 -0.6462
                    CHANNELS 3 Zrotation Xrotation Yrotation
                    JOINT LeftFinger42
                    {
                      OFFSET -0.3575 -1.7167 -0.4742
                      CHANNELS 3 Zrotation Xrotation Yrotation
                      End Site
                      {
                        OFFSET -0.4187 -1.5237 -0.3496
                      }
                    }
                  }
                }
                JOINT LeftFinger0
                {
                  OFFSET -1.42 -1.8761 1.4223
                  CHANNELS 3 Zrotation Xrotation Yrotation
                  JOINT LeftFinger01
                  {
                    OFFSET -1.1471 -3.4929 2.6334
                    CHANNELS 3 Zrotation Xrotation Yrotation
                    JOINT LeftFinger02
                    {
                      OFFSET -0.823 -2.3 1.6571
                      CHANNELS 3 Zrotation Xrotation Yrotation
                      End Site
                      {
                        OFFSET -0.5822 -1.6914 1.1582
                      }
                    }
                  }
                }
              }
            }
          }
        }
        JOINT RightCollar
        {
          OFFSET -2.2603 21.606 7.4023
          CHANNELS 3 Zrotation Xrotation Yrotation
          JOINT RightShoulder
          {
            OFFSET -13.5187 -1.1334 -5.0155
            CHANNELS 3 Zrotation Xrotation Yrotation
            JOINT RightElbow
            {
              OFFSET 0.0994 -28.0499 -0.2431
              CHANNELS 3 Zrotation Xrotation Yrotation
              JOINT RightWrist
              {
                OFFSET -0.0679 -23.3996 -0.1402
                CHANNELS 3 Zrotation Xrotation Yrotation
                JOINT RightFinger1
                {
                  OFFSET -0.7932 -9.0691 2.5189
                  CHANNELS 3 Zrotation Xrotation Yrotation
                  JOINT RightFinger11
                  {
                    OFFSET 0.8272 -3.3923 0.5977
                    CHANNELS 3 Zrotation Xrotation Yrotation
                    JOINT RightFinger12
                    {
                      OFFSET 0.565 -2.3158 0.4082
                      CHANNELS 3 Zrotation Xrotation Yrotation
                      End Site
                      {
                        OFFSET 0.4919 -1.6479 0.2673
                      }
                    }
                  }
                }
                JOINT RightFinger2
                {
                  OFFSET -0.916 -9.2044 0.2193
                  CHANNELS 3 Zrotation Xrotation Yrotation
                  JOINT RightFinger21
                  {
                    OFFSET -0.0117 -4.1944 -0.0248
                    CHANNELS 3 Zrotation Xrotation Yrotation
                    JOINT RightFinger22
                    {
                      OFFSET -0.0071 -2.3249 -0.0142
                      CHANNELS 3 Zrotation Xrotation Yrotation
                      End Site
                      {
                        OFFSET 0.1475 -2.0882 0.0028
                      }
                    }
                  }
                }
                JOINT RightFinger3
                {
                  OFFSET -0.6113 -8.7231 -2.0637
                  CHANNELS 3 Zrotation Xrotation Yrotation
                  JOINT RightFinger31
                  {
                    OFFSET 0.1927 -3.8059 -0.2383
                    CHANNELS 3 Zrotation Xrotation Yrotation
                    JOINT RightFinger32
                    {
                      OFFSET 0.1091 -2.1688 -0.1362
                      CHANNELS 3 Zrotation Xrotation Yrotation
                      End Site
                      {
                        OFFSET 0.2358 -1.9176 -0.0906
                      }
                    }
                  }
                }
                JOINT RightFinger4
                {
                  OFFSET 0.6151 -8.0947 -3.564
                  CHANNELS 3 Zrotation Xrotation Yrotation
                  JOINT RightFinger41
                  {
                    OFFSET 0.4882 -2.341 -0.6462
                    CHANNELS 3 Zrotation Xrotation Yrotation
                    JOINT RightFinger42
                    {
                      OFFSET 0.3574 -1.7166 -0.4742
                      CHANNELS 3 Zrotation Xrotation Yrotation
                      End Site
                      {
                        OFFSET 0.4187 -1.5237 -0.3496
                      }
                    }
                  }
                }
                JOINT RightFinger0
                {
                  OFFSET 1.4199 -1.8761 1.4221
                  CHANNELS 3 Zrotation Xrotation Yrotation
                  JOINT RightFinger01
                  {
                    OFFSET 1.1472 -3.4929 2.6336
                    CHANNELS 3 Zrotation Xrotation Yrotation
                    JOINT RightFinger02
                    {
                      OFFSET 0.8229 -2.3 1.6571
                      CHANNELS 3 Zrotation Xrotation Yrotation
                      End Site
                      {
                        OFFSET 0.5822 -1.6914 1.1582
                      }
                    }
                  }
                }
              }
            }
          }
        }
      }
    }
  }
  JOINT RightHip
  {
    OFFSET -9.412 3.9771 -0.7758
    CHANNELS 3 Zrotation Xrotation Yrotation
    JOINT RightKnee
    {
      OFFSET -0.7531 -40.938 0
      CHANNELS 3 Zrotation Xrotation Yrotation
      JOINT RightAnkle
      {
        OFFSET 0 -40.1986 0
        CHANNELS 3 Zrotation Xrotation Yrotation
        JOINT RightToe
        {
          OFFSET 0 -4.4182 9.239
          CHANNELS 3 Zrotation Xrotation Yrotation
          End Site
          {
            OFFSET 0 0 6.1981
          }
        }
      }
    }
  }
  JOINT LeftHip
  {
    OFFSET 9.4119 3.9773 -0.7758
    CHANNELS 3 Zrotation Xrotation Yrotation
    JOINT LeftKnee
    {
      OFFSET 0.7532 -40.9383 0
      CHANNELS 3 Zrotation Xrotation Yrotation
      JOINT LeftAnkle
      {
        OFFSET 0 -40.1986 0
        CHANNELS 3 Zrotation Xrotation Yrotation
        JOINT LeftToe
        {
          OFFSET 0 -4.4182 9.239
          CHANNELS 3 Zrotation Xrotation Yrotation
          End Site
          {
            OFFSET 0 0 6.1981
          }
        }
      }
    }
  }
}
MOTION
Frames:	6
Frame Time:	0.0333333
5.80788e-005 67.184 3.4734 0 0 -0 0 0 -0 0 0 -0 0 0 -0 0 0 -0 0 0 -0 0 0 -12.5014 88.1196 14.2451 10.6914 -0.00160068 -0.00239207 0.000740045 -8.4365e-005 7.00714e-005 -9.52055e-007 9.93923e-017 -1.98785e-016 -1.59028e-015 9.93923e-017 -5.96354e-016 -1.59028e-015 -9.93923e-017 -5.96354e-016 -1.59028e-015 9.93923e-017 -1.98785e-016 -1.59028e-015 -0.0128176 0.00232552 8.52707e-005 9.93923e-017 5.96354e-016 -0 9.93923e-017 -1.98785e-016 -1.59028e-015 -0.0160551 0.00299681 0.000857156 -2.48481e-016 0 3.18055e-015 9.93923e-017 -1.98785e-016 -1.59028e-015 -0.0125865 0.0031206 0.00282719 0 1.98785e-016 -0 9.93923e-017 -1.98785e-016 -1.59028e-015 9.93923e-017 -5.96354e-016 -1.59028e-015 -9.93923e-017 -5.96354e-016 -1.59028e-015 -0.865644 0.16582 7.03859 -88.0329 10.2057 -10.5567 0.0015593 -0.00248883 -0.000788628 7.87605e-005 4.10553e-005 1.24965e-005 -3.97569e-016 -7.95139e-016 3.18055e-015 -1.98785e-016 -3.97569e-016 3.18055e-015 -1.98785e-016 0 3.18055e-015 -3.97569e-016 -7.95139e-016 3.18055e-015 0.0129473 0.00231697 -8.70038e-005 9.93923e-017 -7.95139e-016 1.59028e-015 -3.97569e-016 -7.95139e-016 3.18055e-015 0.0163314 0.00303369 -0.000872333 3.97569e-016 7.95139e-016 -3.18055e-015 -3.97569e-016 -7.95139e-016 3.18055e-015 0.0145763 0.00367772 -0.00326275 9.93923e-017 -3.97569e-016 -0 -3.97569e-016 -7.95139e-016 3.18055e-015 -1.98785e-016 -3.97569e-016 3.18055e-015 -1.98785e-016 0 3.18055e-015 3.42485 1.36937 -0.0640303 0.000136572 0.69354 0.00145564 -3.42573 -2.06297 -0.0607933 -3.19502e-024 0 -1.48106e-024 -3.42498 1.36123 0.0639712 -6.769e-005 0.712612 -0.0012277 3.42582 -2.07388 0.0612819 2.55305e-023 0 -2.31416e-026 
1.06987 9.8296 -2.02166 -5.66999e-009 30.7312 1.26776e-007 -0.303685 10.0669 -0.307486 -0.564909 20.1352 -0.573405 -0.564909 20.1353 -0.573406 7.63433e-006 -0.000233229 7.43269e-006 -6.05431e-007 1.40289e-005 -2.55285e-007 -8.5376 0.97924 -42.3955 69.3842 -49.6404 46.2278 2.62246 -6.84189 21.5985 27.122 -2.03076 -1.22666 2.72284e-008 4.26144e-007 4.25801e-007 4.85265e-006 -4.66626e-008 6.3595e-008 2.72284e-008 -4.3045e-007 4.25801e-007 2.72284e-008 4.26144e-007 4.25801e-007 -0.0127994 0.00232143 8.46016e-005 5.44284e-008 4.22088e-007 8.51604e-007 2.72284e-008 4.26144e-007 4.25801e-007 -0.0160447 0.00299831 0.00085812 2.72099e-008 -2.46762e-010 4.25802e-007 2.72284e-008 4.26144e-007 4.25801e-007 -0.0125913 0.00312338 0.00282653 2.72082e-008 4.22335e-007 4.25802e-007 2.72284e-008 4.26144e-007 4.25801e-007 4.85265e-006 -4.66626e-008 6.3595e-008 2.72284e-008 -4.3045e-007 4.25801e-007 7.78186 0.477001 37.312 -65.0368 -58.8512 -21.4163 -3.73002 -3.53778 -21.7586 -28.2997 -2.5418 0.625946 -1.57118e-006 2.28527e-006 1.91996e-007 -2.99486e-007 5.44369e-006 4.36585e-006 2.38542e-015 3.18055e-015 -0 -1.57118e-006 2.28527e-006 1.91996e-007 0.0129415 0.0023207 -8.54095e-005 -1.87054e-006 4.3638e-006 4.55777e-006 -1.57118e-006 2.28527e-006 1.91996e-007 0.0163238 0.00303937 -0.000865667 -8.82781e-032 -1.59028e-015 -3.18055e-015 -1.57118e-006 2.28527e-006 1.91996e-007 0.0145891 0.00368529 -0.00326058 7.95139e-016 0 -0 -1.57118e-006 2.28527e-006 1.91996e-007 -2.99486e-007 5.44369e-006 4.36585e-006 2.38542e-015 3.18055e-015 -0 -65.8928 -67.1556 -58.1066 -156.58 28.5316 159.9 26.9579 41.9496 -19.4865 4.86436e-007 3.18055e-015 7.01624e-007 65.944 -67.1916 58.4236 156.685 28.5242 -159.937 -26.6474 41.3556 19.54 -7.73595e-007 1.66361e-006 2.61771e-006 
0.99673 13.3226 -1.10941 1.44198e-007 26.3333 1.17344e-008 -0.299491 9.89018 -0.269399 -0.563857 19.7817 -0.496769 -0.563857 19.7817 -0.496769 5.24877e-006 -0.000155806 5.01415e-006 2.04056e-007 -1.40817e-005 7.68475e-008 -8.38993 0.919176 -38.3643 68.4012 -47.7303 39.5622 2.36932 -6.97096 19.5746 25.0528 -0.730962 -1.87582 1.30589e-007 1.68574e-008 8.41067e-007 -2.68359e-015 0 7.95139e-016 -2.5842e-015 1.59028e-015 7.95139e-016 1.30589e-007 1.68574e-008 8.41067e-007 -0.0128064 0.00232478 8.62186e-005 4.17448e-015 3.18055e-015 1.59028e-015 1.30589e-007 1.68574e-008 8.41067e-007 -0.0160195 0.00299267 0.00085501 1.30527e-007 -1.45082e-008 8.41075e-007 1.30589e-007 1.68574e-008 8.41067e-007 -0.0125522 0.00311875 0.00282034 4.37326e-015 0 -0 1.30589e-007 1.68574e-008 8.41067e-007 -2.68359e-015 0 7.95139e-016 -2.5842e-015 1.59028e-015 7.95139e-016 7.59507 0.503479 33.2287 -64.7206 -56.1503 -18.2387 -3.43804 -3.73529 -19.7317 -26.0614 -1.19015 1.35361 -1.63588e-006 1.02825e-006 -1.9635e-006 -1.09693e-005 -1.98301e-006 1.88516e-006 -1.51547e-006 -1.27472e-006 1.81189e-007 -1.63588e-006 1.02825e-006 -1.9635e-006 0.0129802 0.0023221 -8.6674e-005 -8.74653e-015 -6.36111e-015 -3.18055e-015 -1.63588e-006 1.02825e-006 -1.9635e-006 0.0163439 0.00303333 -0.000870481 -3.03141e-006 1.49003e-006 3.62241e-007 -1.63588e-006 1.02825e-006 -1.9635e-006 0.0145595 0.00367643 -0.00326222 -1.1458e-005 -7.08094e-007 6.19272e-006 -1.63588e-006 1.02825e-006 -1.9635e-006 -1.09693e-005 -1.98301e-006 1.88516e-006 -1.51547e-006 -1.27472e-006 1.81189e-007 -51.9374 -62.1622 -45.7565 -153.577 37.7875 159.143 21.6532 38.6718 -16.6832 -3.70575e-007 -1.06955e-006 -4.49033e-006 51.922 -62.2262 45.9614 153.688 37.7889 -159.185 -21.4243 38.1785 16.7634 7.87095e-007 1.06668e-007 -3.27349e-006 
0.99683 12.9732 -0.619547 -2.63125e-007 24.1929 -4.52138e-008 -0.306228 10.3768 -0.261401 -0.577998 20.7549 -0.477382 -0.577998 20.7549 -0.477382 7.23827e-006 -0.000218762 6.07991e-006 4.97322e-010 1.57421e-009 -2.19885e-007 -8.77227 0.895904 -36.5166 66.4446 -50.026 35.6325 2.30495 -7.53924 19.0676 24.8806 0.38973 -2.49725 1.98785e-015 3.20897e-008 -7.95139e-016 -1.24031e-007 8.18202e-007 -8.38051e-007 -1.86047e-007 1.28912e-006 -1.25708e-006 1.98785e-015 3.20897e-008 -7.95139e-016 -0.0128513 0.00233367 8.66462e-005 1.52459e-006 1.97239e-006 -5.76454e-007 1.98785e-015 3.20897e-008 -7.95139e-016 -0.0160618 0.00300255 0.000858966 -2.47915e-007 -2.99464e-008 -1.67612e-006 1.98785e-015 3.20897e-008 -7.95139e-016 -0.0126233 0.00313242 0.0028324 9.93923e-016 8.3891e-007 7.95139e-016 1.98785e-015 3.20897e-008 -7.95139e-016 -1.24031e-007 8.18202e-007 -8.38051e-007 -1.86047e-007 1.28912e-006 -1.25708e-006 7.96287 0.522862 31.3556 -63.2736 -58.0821 -16.1836 -3.40814 -4.16175 -19.2366 -25.8097 -0.0394194 2.00698 7.95139e-016 2.05839e-006 -3.18055e-015 -2.89469e-006 6.76786e-007 -4.4171e-006 -3.05765e-006 1.52824e-006 3.03768e-007 7.95139e-016 2.05839e-006 -3.18055e-015 0.0129618 0.00232092 -9.04513e-005 -6.57109e-006 1.45184e-006 -9.1572e-007 7.95139e-016 2.05839e-006 -3.18055e-015 0.0163223 0.00303597 -0.000883375 -3.63272e-006 1.61095e-008 -3.39697e-007 7.95139e-016 2.05839e-006 -3.18055e-015 0.0145689 0.00367226 -0.00326003 -1.71003e-007 2.11787e-006 -7.12309e-006 7.95139e-016 2.05839e-006 -3.18055e-015 -2.89469e-006 6.76786e-007 -4.4171e-006 -3.05765e-006 1.52824e-006 3.03768e-007 -51.6701 -59.8626 -44.8124 -153.519 37.8434 159.122 19.6157 38.6777 -15.6775 5.96352e-007 3.52888e-007 6.10259e-007 51.6473 -59.9216 44.9952 153.633 37.8423 -159.165 -19.4179 38.2239 15.7642 1.98785e-016 3.18055e-015 4.37326e-015 
0.99693 12.6355 -0.129517 -4.8973e-008 22.0457 -1.38642e-007 -0.313031 10.8655 -0.253177 -0.592595 21.7322 -0.457315 -0.592595 21.7322 -0.457314 9.16165e-006 -0.000303251 7.30783e-006 -1.63461e-009 -3.09336e-009 2.1988e-007 -9.1546 0.860214 -34.6645 64.4499 -52.273 31.6627 2.23495 -8.10766 18.5591 24.7203 1.51348 -3.11619 -2.38542e-015 4.77083e-015 1.59028e-015 4.77083e-015 3.18055e-015 -0 1.78906e-015 3.18055e-015 1.59028e-015 -2.38542e-015 4.77083e-015 1.59028e-015 -0.0128354 0.00232965 8.45765e-005 6.53138e-006 -3.15647e-007 3.17234e-007 -2.38542e-015 4.77083e-015 1.59028e-015 -0.0160258 0.00299259 0.000856913 -3.37934e-015 -1.59028e-015 -6.36111e-015 -2.38542e-015 4.77083e-015 1.59028e-015 -0.0125797 0.00311724 0.00282422 -7.95139e-016 3.18055e-015 -0 -2.38542e-015 4.77083e-015 1.59028e-015 4.77083e-015 3.18055e-015 -0 1.78906e-015 3.18055e-015 1.59028e-015 8.33205 0.530198 29.4778 -61.606 -59.9837 -13.9138 -3.37472 -4.58742 -18.7408 -25.5707 1.11554 2.65622 -4.28979e-007 -1.50478e-006 -1.5172e-006 -3.08268e-006 2.15409e-006 2.45478e-007 -8.57958e-007 -4.34044e-007 -3.03441e-006 -4.28979e-007 -1.50478e-006 -1.5172e-006 0.0129662 0.00232855 -8.59443e-005 -4.28769e-007 1.62363e-007 -1.51722e-006 -4.28979e-007 -1.50478e-006 -1.5172e-006 0.0163465 0.0030442 -0.000876806 -1.32255e-005 -1.75753e-006 4.91625e-006 -4.28979e-007 -1.50478e-006 -1.5172e-006 0.0145586 0.00367997 -0.0032568 -4.28715e-007 -2.18494e-007 -1.51727e-006 -4.28979e-007 -1.50478e-006 -1.5172e-006 -3.08268e-006 2.15409e-006 2.45478e-007 -8.57958e-007 -4.34044e-007 -3.03441e-006 -51.4812 -57.561 -43.9388 -153.462 37.8982 159.1 17.579 38.6569 -14.6735 2.39346e-006 9.80689e-007 2.43338e-006 51.4546 -57.6144 44.1028 153.579 37.8942 -159.146 -17.4102 38.2427 14.7644 -1.60535e-007 1.47688e-006 3.86758e-006 
0.997034 12.3095 0.360165 1.78781e-007 19.8932 -1.84263e-008 -0.319899 11.3557 -0.244731 -0.607662 22.7125 -0.436557 -0.607662 22.7126 -0.436557 1.06056e-005 -0.000350559 8.57479e-006 5.65265e-007 -1.32962e-005 2.12796e-007 -9.53628 0.812077 -32.8092 63.48 -54.6706 28.6044 2.15979 -8.67547 18.0489 24.5719 2.63989 -3.73295 -1.21615e-007 -1.79569e-006 -8.27045e-007 5.96354e-016 -1.59028e-015 -3.18055e-015 2.38542e-015 0 -3.18055e-015 -1.21615e-007 -1.79569e-006 -8.27045e-007 -0.0128253 0.00232164 8.23682e-005 1.59028e-015 -1.59028e-015 -0 -1.21615e-007 -1.79569e-006 -8.27045e-007 -0.0160397 0.00299291 0.000853365 -1.98785e-016 -1.59028e-015 -1.59028e-015 -1.21615e-007 -1.79569e-006 -8.27045e-007 -0.0126117 0.00312489 0.00282966 2.18663e-015 0 -0 -1.21615e-007 -1.79569e-006 -8.27045e-007 5.96354e-016 -1.59028e-015 -3.18055e-015 2.38542e-015 0 -3.18055e-015 8.70197 0.525462 27.5962 -59.5715 -61.8389 -11.2853 -3.33756 -5.01286 -18.2443 -25.3445 2.27425 3.30165 4.77083e-015 -1.59028e-015 3.18055e-015 1.76556e-031 3.18055e-015 -3.18055e-015 -5.06212e-006 1.70928e-007 -1.2317e-006 4.77083e-015 -1.59028e-015 3.18055e-015 0.0129141 0.00230996 -8.22296e-005 -1.05178e-005 1.2728e-006 -1.00242e-005 4.77083e-015 -1.59028e-015 3.18055e-015 0.016287 0.00302585 -0.000870912 -1.71498e-005 -1.44194e-006 9.36416e-007 4.77083e-015 -1.59028e-015 3.18055e-015 0.0145606 0.00367074 -0.00325167 -1.01248e-005 -7.86801e-007 -2.46388e-006 4.77083e-015 -1.59028e-015 3.18055e-015 1.76556e-031 3.18055e-015 -3.18055e-015 -5.06212e-006 1.70928e-007 -1.2317e-006 -51.3568 -55.259 -43.1217 -153.406 37.9518 159.078 15.545 38.6088 -13.673 1.25254e-005 6.14771e-006 -7.54388e-006 51.3283 -55.3065 43.2684 153.526 37.9449 -159.126 -15.403 38.2345 13.7656 -1.40491e-006 7.54877e-006 1.27572e-006 
